<?xml version="1.0" encoding="utf-8"?>
<!DOCTYPE svg PUBLIC "-//W3C//DTD SVG 1.0//EN" "http://www.w3.org/TR/2001/REC-SVG-20010904/DTD/svg10.dtd">
<svg version="1.0" id="Layer_1" xmlns="http://www.w3.org/2000/svg" xmlns:xlink="http://www.w3.org/1999/xlink" x="0px" y="0px"
	 width="144em" height="32em" viewBox="0 0 144 32" enable-background="new 0 0 144 32" xml:space="preserve">
<rect x="2.505" y="17.624" width="3.255" height="13"/>
<rect x="9.36" y="17.624" width="3.255" height="13"/>
<rect x="114.999" y="3.043" width="12" height="12"/>
<path d="M108.327,23.743c0,2.153-1.746,3.899-3.9,3.899c-2.152,0-3.899-1.746-3.899-3.899s1.747-3.899,3.899-3.899
	C106.581,19.844,108.327,21.59,108.327,23.743"/>
<polygon points="12.616,8.131 2.505,14.631 2.505,1.631 "/>
<g>
	<g>
		<path d="M22.757,18.893L21.88,19.77c2.346,2.416,2.333,6.284-0.057,8.673l0.875,0.875C25.573,26.442,25.589,21.792,22.757,18.893z
			 M19.548,22.101c1.062,1.13,1.048,2.907-0.056,4.013l0.874,0.873c1.588-1.588,1.601-4.147,0.057-5.76L19.548,22.101z
			 M25.088,16.564l-0.873,0.87c3.633,3.701,3.614,9.666-0.06,13.342h-0.002l0.873,0.872l-0.022,0.022
			c0.008-0.009,0.018-0.016,0.024-0.022C29.193,27.487,29.209,20.75,25.088,16.564z"/>
	</g>
</g>
<g>
	<g>
		<path d="M25.088,0.324l-0.873,0.872c3.633,3.702,3.613,9.666-0.06,13.342h-0.002l0.873,0.872l-0.022,0.022
			c0.008-0.009,0.018-0.016,0.024-0.022C29.193,11.249,29.209,4.511,25.088,0.324z M22.757,2.655L21.88,3.531
			c2.346,2.417,2.333,6.284-0.057,8.673l0.875,0.875C25.573,10.204,25.589,5.554,22.757,2.655z M19.548,5.862
			c1.062,1.13,1.048,2.907-0.056,4.013l0.874,0.873c1.588-1.588,1.601-4.147,0.056-5.76L19.548,5.862z"/>
	</g>
</g>
<line fill="#FFFFFF" stroke="#000000" stroke-width="1.4446" x1="19.013" y1="14.526" x2="28.5" y2="0.714"/>
</svg>
