<?xml version="1.0" encoding="utf-8"?>
<!-- Generator: Adobe Illustrator 15.0.0, SVG Export Plug-In . SVG Version: 6.00 Build 0)  -->
<!DOCTYPE svg PUBLIC "-//W3C//DTD SVG 1.1//EN" "http://www.w3.org/Graphics/SVG/1.1/DTD/svg11.dtd">
<svg version="1.1" id="Layer_1" xmlns="http://www.w3.org/2000/svg" xmlns:xlink="http://www.w3.org/1999/xlink" x="0px" y="0px"
	 width="200em" height="200em" viewBox="2972 2972 200 200" enable-background="new 2972 2972 200 200" xml:space="preserve">
<g>
	<path fill="#E60012" d="M3172,3072.003c0,55.219-44.768,99.997-99.994,99.997c-55.231,0-100.006-44.768-100.006-99.997
		c0-55.224,44.774-100.003,100.006-100.003C3127.232,2972,3172,3016.779,3172,3072.003"/>
	<path fill="#251D1F" d="M3111.854,3072.003c0,22.002-17.842,39.85-39.842,39.85c-22.013,0-39.853-17.852-39.853-39.85
		c0-22.008,17.845-39.845,39.853-39.845C3094.011,3032.158,3111.854,3050.003,3111.854,3072.003"/>
	<path fill="#FFFFFF" d="M3069.828,3067.662h11.813c0.533,0,0.659-0.124,0.659-0.602v-0.934c0-0.536-0.155-0.57-0.757-0.57h-10.791
		c-0.536,0-0.924,0-0.924,0.701V3067.662L3069.828,3067.662z M3084.057,3057.161c1.275,0,2.562,0,2.562,1.635
		c0,1.751-1.185,1.751-2.562,1.751h-16.364c-1.247,0-2.554,0-2.554-1.623c0-1.758,1.176-1.758,2.554-1.758h16.364V3057.161
		L3084.057,3057.161z M3072.382,3077.482c-1.312,0-2.559,0-2.559-1.658c0-1.615,1.247-1.654,2.559-1.654h3.437
		c0-2.489,0-2.773,0.709-3.319h-6.763c-0.095,2.683-0.606,7.438-2.072,11.459c-0.706,1.974-1.218,2.997-2.489,2.997
		c-1.536,0-2.076-0.95-2.076-1.63c0-0.504,0.764-2.231,1.019-2.871c1.504-3.629,1.916-8.709,1.916-13.558
		c0-2.797,0-3.085,0.16-3.498c0.641-1.593,2.101-1.593,3.258-1.593h13.392c3.123,0,3.123,2.132,3.123,2.862v3.129
		c0,2.711-2.26,2.711-3.352,2.711h-3.827c0.795,0.611,0.795,0.9,0.732,3.318h4.147c1.31,0,2.552,0.042,2.552,1.654
		c0,1.659-1.241,1.659-2.552,1.659h-3.891c0.703,0.936,2.27,2.881,5.292,4.502c1.247,0.67,1.664,0.936,1.664,1.94
		c0,1.479-1.174,1.888-1.853,1.888c-1.785,0-5.676-3.436-6.928-5.104c-2.271,3.328-5.967,5.069-7.309,5.069
		c-1.56,0-1.914-1.392-1.914-1.873c0-0.863,0.517-1.149,1.247-1.504c1.596-0.732,4.592-2.169,5.424-4.919h-3.049V3077.482z
		 M3063.351,3058.893c2.3,1.948,2.3,2.516,2.3,3.032c0,1.176-1.023,1.817-1.953,1.817c-0.83,0-0.929-0.163-3.889-2.812
		c-0.929-0.83-1.342-1.241-1.342-1.882c0-1.407,1.21-2.001,1.688-2.001C3060.797,3057.047,3061.209,3057.047,3063.351,3058.893
		 M3064.503,3074.941c0,1.838-2.489,7.461-3.16,8.576c-0.417,0.738-1.017,1.592-2.169,1.592c-0.448,0-1.89-0.35-1.89-1.693
		c0-0.641,0.128-0.863,1.089-2.838c0.607-1.242,1.564-3.755,2.617-6.475c0.156-0.445,0.478-0.981,1.397-0.981
		C3062.844,3073.122,3064.503,3073.406,3064.503,3074.941 M3063.227,3066.868c0.924,0.73,1.436,1.242,1.436,2.072
		c0,1.087-0.989,1.817-1.753,1.817c-0.582,0-0.9-0.223-3.702-2.142c-2.013-1.375-2.241-1.528-2.241-2.489
		c0-0.759,0.611-1.853,1.819-1.853C3059.909,3064.278,3061.796,3065.724,3063.227,3066.868"/>
	<path fill="#FFFFFF" d="M3111.834,3076.119c1.543,6.564,3.3,11.799,5.26,15.699c1.969,3.887,4.967,8.111,8.994,12.652l1.736,1.931
		c5.249,5.86,7.879,11.721,7.879,17.581c0,6.48-2.349,12.021-7.035,16.658c-4.682,4.639-10.294,6.957-16.828,6.957
		c-6.512,0-12.104-2.318-16.791-6.957c-4.676-4.637-7.029-10.178-7.029-16.658c0-5.86,2.629-11.721,7.873-17.581l1.747-1.931
		c4.022-4.541,7.024-8.766,8.984-12.652C3108.584,3087.918,3110.316,3082.684,3111.834,3076.119"/>
</g>
</svg>
