<?xml version="1.0" encoding="utf-8"?>
<!-- Generator: Adobe Illustrator 15.0.0, SVG Export Plug-In . SVG Version: 6.00 Build 0)  -->
<!DOCTYPE svg PUBLIC "-//W3C//DTD SVG 1.1//EN" "http://www.w3.org/Graphics/SVG/1.1/DTD/svg11.dtd">
<svg version="1.1" id="Ebene_1" xmlns="http://www.w3.org/2000/svg" xmlns:xlink="http://www.w3.org/1999/xlink" x="0px" y="0px"
	 width="100em" height="100em" viewBox="0 0 100 100" enable-background="new 0 0 100 100" xml:space="preserve">
<g>
	<path fill="#E60012" d="M100,50.001C100,77.611,77.615,100,50.003,100C22.388,100,0,77.616,0,50.001C0,22.39,22.387,0,50.003,0
		C77.615,0,100,22.39,100,50.001"/>
	<path fill="#251D1F" d="M69.928,50.001c0,11-8.922,19.925-19.922,19.925C39,69.927,30.08,61,30.08,50.001
		c0-11.004,8.922-19.922,19.926-19.922C61.006,30.079,69.928,39.001,69.928,50.001"/>
	<path fill="#FFFFFF" d="M48.914,47.831h5.906c0.267,0,0.33-0.062,0.33-0.301v-0.467c0-0.268-0.078-0.285-0.379-0.285h-5.396
		c-0.268,0-0.462,0-0.462,0.35L48.914,47.831L48.914,47.831z M56.028,42.581c0.638,0,1.281,0,1.281,0.817
		c0,0.875-0.593,0.875-1.281,0.875h-8.182c-0.623,0-1.277,0-1.277-0.812c0-0.879,0.588-0.879,1.277-0.879h8.182V42.581
		L56.028,42.581z M50.191,52.741c-0.656,0-1.279,0-1.279-0.829c0-0.808,0.624-0.827,1.279-0.827h1.719c0-1.244,0-1.386,0.354-1.659
		h-3.381c-0.047,1.341-0.303,3.719-1.036,5.729c-0.353,0.987-0.609,1.498-1.245,1.498c-0.768,0-1.038-0.475-1.038-0.814
		c0-0.252,0.382-1.116,0.51-1.436c0.752-1.814,0.958-4.354,0.958-6.779c0-1.398,0-1.542,0.08-1.749
		c0.32-0.796,1.05-0.796,1.629-0.796h6.696c1.562,0,1.562,1.066,1.562,1.431v1.564c0,1.355-1.13,1.355-1.676,1.355h-1.914
		c0.398,0.305,0.398,0.45,0.367,1.658h2.072c0.656,0,1.276,0.021,1.276,0.828c0,0.829-0.62,0.829-1.276,0.829h-1.945
		c0.352,0.468,1.135,1.44,2.646,2.251c0.623,0.335,0.832,0.468,0.832,0.97c0,0.739-0.588,0.944-0.927,0.944
		c-0.893,0-2.838-1.719-3.464-2.553c-1.136,1.664-2.984,2.535-3.655,2.535c-0.78,0-0.957-0.696-0.957-0.937
		c0-0.432,0.259-0.575,0.624-0.752c0.798-0.366,2.297-1.085,2.713-2.46h-1.525v-0.003H50.191z M45.675,43.447
		c1.15,0.974,1.15,1.258,1.15,1.516c0,0.588-0.512,0.908-0.977,0.908c-0.415,0-0.464-0.082-1.944-1.406
		c-0.465-0.415-0.671-0.62-0.671-0.941c0-0.704,0.604-1,0.844-1C44.398,42.523,44.604,42.523,45.675,43.447 M46.251,51.471
		c0,0.919-1.245,3.73-1.58,4.288c-0.208,0.368-0.508,0.796-1.084,0.796c-0.224,0-0.945-0.176-0.945-0.847
		c0-0.32,0.064-0.432,0.544-1.419c0.304-0.621,0.782-1.877,1.309-3.237c0.078-0.223,0.239-0.491,0.699-0.491
		C45.422,50.561,46.251,50.703,46.251,51.471 M45.614,47.434c0.462,0.365,0.718,0.621,0.718,1.036c0,0.543-0.495,0.908-0.876,0.908
		c-0.291,0-0.45-0.111-1.851-1.071c-1.006-0.688-1.12-0.764-1.12-1.245c0-0.379,0.305-0.926,0.909-0.926
		C43.955,46.139,44.898,46.862,45.614,47.434"/>
	<path fill="#FFFFFF" d="M69.917,52.06c0.771,3.282,1.649,5.899,2.63,7.85c0.984,1.943,2.484,4.056,4.497,6.326l0.868,0.966
		c2.625,2.93,3.939,5.859,3.939,8.79c0,3.239-1.175,6.011-3.518,8.329c-2.341,2.319-5.146,3.479-8.414,3.479
		c-3.256,0-6.052-1.159-8.396-3.479c-2.338-2.318-3.515-5.09-3.515-8.329c0-2.931,1.314-5.86,3.938-8.79l0.873-0.966
		c2.011-2.271,3.512-4.384,4.492-6.326C68.292,57.959,69.158,55.342,69.917,52.06"/>
</g>
</svg>
