<?xml version="1.0" encoding="utf-8"?>
<!DOCTYPE svg PUBLIC "-//W3C//DTD SVG 1.1//EN" "http://www.w3.org/Graphics/SVG/1.1/DTD/svg11.dtd">
<svg version="1.1" id="Layer_1" xmlns="http://www.w3.org/2000/svg" xmlns:xlink="http://www.w3.org/1999/xlink" x="0px" y="0px"
	 width="300px" height="70px" viewBox="0 0 300 70" enable-background="new 0 0 300 70" xml:space="preserve">
<rect x="20" y="1" width="3" height="13"/>
<rect x="26" y="1" width="3" height="13"/>
<polygon points="10,8 0,15 0,1 "/>
<g>
	<path d="M45.807,0l-0.905,0.866c3.77,3.676,3.749,9.597-0.062,13.247h-0.002l0.906,0.867L45.72,15
		c0.008-0.008,0.02-0.016,0.025-0.021C50.066,10.847,50.083,4.157,45.807,0z M43.388,2.314l-0.91,0.871
		c2.434,2.4,2.42,6.238-0.059,8.61l0.908,0.869C46.309,9.809,46.326,5.192,43.388,2.314z M40.058,5.5
		C41.16,6.622,41.146,8.385,40,9.483l0.907,0.867c1.648-1.577,1.662-4.117,0.06-5.72L40.058,5.5z"/>
</g>
<circle cx="84" cy="8" r="4"/>
<rect x="100" y="1" width="12" height="12"/>
<rect x="282" width="18" height="19"/>
<polygon fill="#FFFFFF" points="285.176,8 290.999,13.5 296.823,8 "/>
<g>
	<circle fill="#E60012" cx="210" cy="30" r="30"/>
	<circle fill="#251D1F" cx="210" cy="30" r="12"/>
	<path fill="#FFFFFF" d="M209.348,28.699h3.545c0.16,0,0.197-0.039,0.197-0.18v-0.281c0-0.16-0.047-0.172-0.227-0.172h-3.238
		c-0.16,0-0.277,0-0.277,0.211V28.699L209.348,28.699z M213.617,25.551c0.383,0,0.77,0,0.77,0.488c0,0.527-0.357,0.527-0.77,0.527
		h-4.91c-0.373,0-0.766,0-0.766-0.488c0-0.527,0.352-0.527,0.766-0.527H213.617L213.617,25.551L213.617,25.551z M210.113,31.645
		c-0.393,0-0.766,0-0.766-0.496c0-0.48,0.375-0.496,0.766-0.496h1.033c0-0.742,0-0.832,0.213-0.992h-2.029
		c-0.029,0.805-0.182,2.229-0.623,3.438c-0.211,0.594-0.363,0.896-0.746,0.896c-0.461,0-0.623-0.285-0.623-0.488
		c0-0.15,0.229-0.668,0.307-0.861c0.451-1.086,0.574-2.607,0.574-4.064c0-0.84,0-0.926,0.049-1.047c0.191-0.48,0.631-0.48,0.98-0.48
		h4.02c0.938,0,0.938,0.641,0.938,0.859v0.938c0,0.812-0.679,0.812-1.006,0.812h-1.148c0.24,0.184,0.24,0.273,0.222,0.995h1.242
		c0.396,0,0.766,0.013,0.766,0.495c0,0.5-0.369,0.5-0.766,0.5h-1.166c0.211,0.281,0.682,0.863,1.588,1.35
		c0.373,0.203,0.5,0.28,0.5,0.582c0,0.443-0.354,0.564-0.56,0.564c-0.535,0-1.701-1.029-2.078-1.529c-0.68,1-1.789,1.521-2.19,1.521
		c-0.469,0-0.572-0.418-0.572-0.562c0-0.265,0.152-0.351,0.375-0.453c0.479-0.222,1.379-0.646,1.629-1.479L210.113,31.645
		L210.113,31.645h0.002l0,0H210.113z M207.406,26.07c0.688,0.582,0.688,0.754,0.688,0.906c0,0.355-0.305,0.547-0.586,0.547
		c-0.248,0-0.277-0.051-1.166-0.844c-0.279-0.25-0.402-0.371-0.402-0.566c0-0.422,0.363-0.598,0.506-0.598
		C206.639,25.516,206.762,25.516,207.406,26.07 M207.75,30.883c0,0.551-0.746,2.238-0.947,2.574
		c-0.125,0.219-0.305,0.477-0.65,0.477c-0.135,0-0.562-0.104-0.562-0.508c0-0.191,0.037-0.258,0.326-0.852
		c0.185-0.371,0.47-1.125,0.785-1.941c0.047-0.137,0.144-0.297,0.42-0.297C207.254,30.336,207.75,30.422,207.75,30.883
		 M207.367,28.461c0.277,0.219,0.432,0.371,0.432,0.621c0,0.328-0.297,0.547-0.525,0.547c-0.174,0-0.27-0.066-1.104-0.645
		c-0.604-0.414-0.672-0.457-0.672-0.746c0-0.227,0.183-0.555,0.543-0.555C206.373,27.684,206.938,28.117,207.367,28.461"/>
	<path fill="#FFFFFF" d="M221.949,31.238c0.465,1.969,0.99,3.539,1.578,4.707c0.592,1.168,1.492,2.434,2.699,3.797l0.52,0.578
		c1.576,1.758,2.363,3.516,2.363,5.277c0,1.938-0.703,3.604-2.109,4.992c-1.404,1.395-3.088,2.09-5.049,2.09
		c-1.953,0-3.631-0.695-5.037-2.09c-1.402-1.391-2.109-3.055-2.109-4.992c0-1.766,0.789-3.521,2.363-5.277l0.523-0.578
		c1.207-1.363,2.104-2.629,2.695-3.797C220.975,34.777,221.496,33.207,221.949,31.238"/>
</g>
<line fill="none" stroke="#000000" stroke-width="1" stroke-miterlimit="10" x1="120" y1="1" x2="130" y2="11"/>
<line fill="none" stroke="#000000" stroke-width="1" stroke-miterlimit="10" x1="120" y1="11" x2="130" y2="1"/>
<g>
	<path fill="#8E8F8F" d="M65.807,0l-0.904,0.866c3.77,3.676,3.748,9.597-0.062,13.247h-0.002l0.906,0.867l-0.024,0.021
		c0.009-0.008,0.021-0.016,0.024-0.021C70.066,10.847,70.082,4.158,65.807,0z M63.389,2.315l-0.91,0.871
		c2.434,2.4,2.42,6.238-0.06,8.61l0.907,0.869C66.309,9.809,66.326,5.192,63.389,2.315z M60.059,5.5
		C61.16,6.622,61.146,8.385,60,9.484l0.906,0.867c1.648-1.577,1.662-4.116,0.061-5.72L60.059,5.5z"/>
</g>
</svg>
